<?xml version="1.0" encoding="utf-8"?>
<!-- Generator: Adobe Illustrator 16.0.0, SVG Export Plug-In . SVG Version: 6.00 Build 0)  -->
<!DOCTYPE svg PUBLIC "-//W3C//DTD SVG 1.1//EN" "http://www.w3.org/Graphics/SVG/1.1/DTD/svg11.dtd">
<svg version="1.1" id="Layer_1" xmlns="http://www.w3.org/2000/svg" xmlns:xlink="http://www.w3.org/1999/xlink" x="0px" y="0px"
	 width="421.2px" height="524.825px" viewBox="0 0 421.2 524.825" enable-background="new 0 0 421.2 524.825" xml:space="preserve">
<g>
	<g>
		<g>
			<g>
				<g>
					<path fill="#E1E1E1" d="M0,248.365h161.57v93.515H0V248.365z M160.543,249.31H0.944v91.542h159.6V249.31z"/>
				</g>
				<g>
					<rect x="33.342" y="298.166" fill="#F0F0F0" width="106.629" height="3.086"/>
				</g>
				<g>
					<rect x="25.971" y="309.824" fill="#F0F0F0" width="114" height="3.428"/>
				</g>
				<g>
					<rect x="25.971" y="321.652" fill="#F0F0F0" width="114" height="3.43"/>
				</g>
				<g>
					<rect x="102.688" y="281.281" fill="#F0F0F0" width="37.283" height="8.143"/>
				</g>
				<g>
					<rect x="0.514" y="248.794" fill="#E1E1E1" width="160.543" height="14.917"/>
				</g>
			</g>
			<g>
				<g>
					<g>
						<path fill="#FFFFFF" d="M7.458,256.595c-2.742-2.914-4.801-5.4-4.629-5.571c0.256-0.173,2.658,1.971,5.4,4.885
							c2.742,2.915,4.801,5.401,4.629,5.572S10.286,259.509,7.458,256.595z"/>
					</g>
				</g>
				<g>
					<g>
						<path fill="#FFFFFF" d="M7.458,255.908c2.828-2.914,5.229-5.058,5.4-4.885c0.172,0.171-1.887,2.655-4.629,5.571
							c-2.828,2.914-5.229,5.057-5.4,4.886C2.657,261.308,4.715,258.822,7.458,255.908z"/>
					</g>
				</g>
			</g>
		</g>
		<g>
			<g>
				<g>
					<rect x="198.858" y="63.651" fill="#E7E7E7" width="160.543" height="92.571"/>
				</g>
				<g>
					<rect x="231.686" y="113.023" fill="#F0F0F0" width="106.629" height="3.085"/>
				</g>
				<g>
					<rect x="224.315" y="124.679" fill="#F0F0F0" width="114" height="3.429"/>
				</g>
				<g>
					<rect x="224.315" y="136.508" fill="#F0F0F0" width="114" height="3.429"/>
				</g>
				<g>
					<rect x="301.03" y="96.137" fill="#F0F0F0" width="37.285" height="8.143"/>
				</g>
				<g>
					<rect x="198.858" y="63.651" fill="#E1E1E1" width="160.543" height="14.914"/>
				</g>
			</g>
			<g>
				<g>
					<g>
						<path fill="#FFFFFF" d="M206.315,71.365c-2.742-2.915-4.801-5.401-4.627-5.572c0.256-0.171,2.654,1.972,5.398,4.886
							c2.742,2.915,4.799,5.4,4.629,5.572C211.543,76.423,209.143,74.28,206.315,71.365z"/>
					</g>
				</g>
				<g>
					<g>
						<path fill="#FFFFFF" d="M206.401,70.679c2.828-2.914,5.227-5.057,5.398-4.886c0.172,0.172-1.885,2.657-4.629,5.572
							c-2.828,2.914-5.227,5.057-5.398,4.886C201.514,76.079,203.657,73.594,206.401,70.679z"/>
					</g>
				</g>
			</g>
		</g>
		<g>
			<g>
				<path fill="#E1E1E1" d="M259.629,141.994H421.2v93.514h-161.57V141.994z M420.258,143.023H260.657v91.542h159.602V143.023z"/>
			</g>
			<g>
				<rect x="292.971" y="191.88" fill="#F0F0F0" width="106.629" height="3.085"/>
			</g>
			<g>
				<rect x="285.6" y="203.537" fill="#F0F0F0" width="114" height="3.428"/>
			</g>
			<g>
				<rect x="285.6" y="215.365" fill="#F0F0F0" width="114" height="3.428"/>
			</g>
			<g>
				<rect x="362.315" y="174.994" fill="#F0F0F0" width="37.285" height="8.143"/>
			</g>
			<g>
				<rect x="260.229" y="142.508" fill="#E1E1E1" width="160.543" height="14.915"/>
			</g>
		</g>
		<g>
			<rect x="73.2" y="256.937" fill="#E7E7E7" width="189.6" height="169.715"/>
		</g>
		<g>
			<g>
				<rect x="253.286" y="203.537" fill="#F0F0F0" width="148.543" height="154.287"/>
			</g>
			<g>
				<rect x="253.286" y="203.537" fill="#E1E1E1" width="148.543" height="16.8"/>
			</g>
			<g>
				<path fill="#FFFFFF" d="M392.657,208.508c1.715,0,3.086,1.457,3.086,3.257c0,1.799-1.371,3.257-3.086,3.257
					c-1.713,0-3.086-1.457-3.086-3.257C389.571,209.965,390.944,208.508,392.657,208.508z"/>
			</g>
			<g>
				<path fill="#FFFFFF" d="M379.971,208.508c1.717,0,3.086,1.457,3.086,3.257c0,1.799-1.369,3.257-3.086,3.257
					c-1.713,0-3.086-1.457-3.086-3.257C376.885,209.965,378.258,208.508,379.971,208.508z"/>
			</g>
			<g>
				<path fill="#FFFFFF" d="M367.286,208.508c1.715,0,3.086,1.457,3.086,3.257c0,1.799-1.371,3.257-3.086,3.257
					s-3.086-1.457-3.086-3.257C364.2,209.965,365.657,208.508,367.286,208.508z"/>
			</g>
		</g>
		<g>
			<g>
				<rect x="21.17" y="97.423" fill="#F0F0F0" width="189.602" height="189"/>
			</g>
			<g>
				<rect x="21.17" y="97.423" fill="#E1E1E1" width="189.602" height="22.114"/>
			</g>
			<g>
				<path fill="#FFFFFF" d="M198.772,103.936c2.313,0,4.113,1.886,4.113,4.286s-1.885,4.286-4.113,4.286
					c-2.314,0-4.115-1.886-4.115-4.286C194.657,105.908,196.543,103.937,198.772,103.936z"/>
			</g>
			<g>
				<path fill="#FFFFFF" d="M185.143,105.137c1.543,1.542,1.543,4.2-0.172,5.914c-1.629,1.714-4.285,1.799-5.914,0.171
					c-1.543-1.543-1.543-4.2,0.172-5.914C180.858,103.679,183.514,103.594,185.143,105.137z"/>
			</g>
			<g>
				<path fill="#FFFFFF" d="M165.514,103.936c2.314,0,4.113,1.886,4.113,4.286s-1.885,4.286-4.113,4.286
					c-2.314,0-4.113-1.886-4.113-4.286C161.401,105.908,163.2,103.936,165.514,103.936z"/>
			</g>
		</g>
	</g>
	<g>
		<g>
			<g>
				<path fill="#FF5353" d="M100.114,383.794c-12.428,4.543-24,3.344-36.512-0.857c-12.514-4.371-23.572-12.6-32.229-22.713
					c-2.4-2.916-4.801-6-5.914-9.688c-1.199-3.6-1.029-7.887,1.285-10.971c3.514-4.629,10.457-5.059,15.857-3
					c2.914,1.027,5.656,2.656,8.656,3.256c3,0.602,6.688-0.342,8.057-3.086c1.457-2.742,0-6.256-2.313-8.313
					c-2.314-2.057-5.314-3-8.23-4.029c-8.055-3-15.598-7.371-22.199-12.855c-3.342-2.742-6.686-6.943-5.057-10.973
					c1.199-2.914,4.457-4.287,7.543-4.629s6.256-0.086,9.172-1.027c2.57-0.857,5.057-3.43,4.199-6.086
					c-0.514-1.457-1.887-2.4-3.086-3.258c-6.857-4.885-13.029-10.713-18.258-17.398c-3.514-4.544-6.771-10.116-5.314-15.687
					c1.373-5.486,7.373-9.001,13.029-8.657c5.658,0.344,10.715,3.771,14.4,8.057c3.684,4.285,6.17,9.514,8.742,14.572
					c2.572,5.058,5.314,10.2,9.344,14.144c1.113,1.113,2.742,2.229,4.285,1.799c1.543-0.428,2.313-2.227,2.398-3.855
					c0.088-1.629-0.256-3.258,0.088-4.887c0.771-3.857,5.4-5.999,9.172-4.971c3.686,1.029,6.428,4.457,7.627,8.229
					c1.201,3.686,1.201,7.715,1.201,11.656c-0.086,7.285-0.086,14.658-0.174,21.943c0,3.943,0.344,8.656,3.771,10.543
					c2.488,1.371,5.658,0.514,8.145-0.771c3.857-1.973,7.113-5.057,9.258-8.828c1.629-2.828,2.914-6.258,5.826-7.629
					c3.516-1.629,7.887,0.771,9.771,4.199c1.887,3.43,1.373,7.629,1.543,11.572C125.057,343.251,120.428,369.65,100.114,383.794"/>
			</g>
		</g>
		<g>
			<g>
				<g>
					<path fill="#25325D" d="M21.516,247.166c0.258,0.259,0.686,0.601,1.201,1.029c1.027,0.856,2.57,2.229,4.543,3.942
						c3.941,3.515,9.342,8.828,15.256,16.116c3,3.686,6.086,7.799,9.258,12.256s6.6,9.258,9.941,14.486
						c3.344,5.143,6.771,10.715,9.771,16.801c1.543,3,2.914,6.17,4.285,9.342c1.373,3.256,2.83,6.514,4.201,9.771
						c5.57,13.199,10.457,25.971,13.971,37.887c3.514,11.914,5.572,23.055,6.43,32.398c0.941,9.43,0.6,17.057,0.17,22.285
						c-0.17,2.572-0.428,4.629-0.686,6c-0.086,0.688-0.17,1.201-0.256,1.543c0,0.344-0.086,0.516-0.086,0.516
						c-0.088,0,0-0.172,0-0.516c0-0.342,0.086-0.855,0.172-1.543c0.17-1.371,0.428-3.342,0.6-6
						c0.428-5.227,0.598-12.855-0.344-22.199c-0.857-9.344-3-20.314-6.516-32.229c-3.514-11.914-8.398-24.6-13.971-37.801
						c-1.457-3.342-2.828-6.6-4.199-9.771c-1.459-3.172-2.742-6.342-4.285-9.342c-3-6-6.344-11.572-9.688-16.801
						c-3.342-5.143-6.684-10.029-9.857-14.486c-3.17-4.457-6.256-8.656-9.17-12.256c-5.83-7.286-11.145-12.686-15-16.202
						c-1.887-1.799-3.43-3.084-4.459-4.027c-0.512-0.43-0.941-0.771-1.197-1.029c-0.26-0.172-0.344-0.343-0.344-0.343
						S21.428,247.165,21.516,247.166z"/>
				</g>
			</g>
		</g>
		<g>
			<g>
				<g>
					<path fill="#25325D" d="M71.571,309.994c0.172-1.199,0.344-2.742,0.514-4.627c0.43-4.115,0.943-9.43,1.543-15.344
						c0.688-5.916,1.373-11.401,2.145-15.258c0.342-1.885,0.686-3.514,0.941-4.543c0.258-1.027,0.43-1.627,0.516-1.627
						c0,0-0.086,0.6-0.258,1.713c-0.172,1.115-0.428,2.656-0.771,4.629c-0.6,3.857-1.285,9.256-1.885,15.256
						c-0.688,6-1.285,11.402-1.801,15.344c-0.342,1.973-0.6,3.516-0.771,4.629s-0.256,1.715-0.342,1.715
						C71.401,311.88,71.401,311.281,71.571,309.994z"/>
				</g>
			</g>
		</g>
		<g>
			<g>
				<g>
					<path fill="#25325D" d="M22.971,302.453c1.287,0.086,3.174,0.172,5.486,0.344c4.715,0.342,11.057,1.199,18.086,2.484
						c7.027,1.285,13.285,2.914,17.742,4.199c2.314,0.688,4.115,1.285,5.314,1.715c1.199,0.428,1.887,0.686,1.887,0.771
						c0,0-0.688-0.172-1.973-0.514c-1.287-0.346-3.086-0.857-5.314-1.457c-4.457-1.201-10.799-2.744-17.742-4.029
						c-7.029-1.371-13.371-2.229-18-2.742c-2.313-0.258-4.199-0.43-5.486-0.516c-1.369-0.086-2.057-0.172-2.057-0.256
						C20.915,302.367,21.6,302.367,22.971,302.453z"/>
				</g>
			</g>
		</g>
		<g>
			<g>
				<g>
					<path fill="#25325D" d="M93.602,367.337c0.256-0.514,0.512-1.115,0.77-1.885c0.686-1.715,1.629-4.029,2.742-6.857
						c2.314-5.83,5.314-13.973,8.658-22.973c3.258-9,6.428-17.057,8.828-22.887c1.199-2.826,2.229-5.141,3-6.77
						c0.342-0.686,0.6-1.285,0.857-1.801c0.17-0.43,0.342-0.6,0.342-0.6c0.086,0,0,0.258-0.172,0.686
						c-0.256,0.514-0.514,1.115-0.77,1.887c-0.686,1.713-1.629,4.027-2.744,6.855c-2.314,5.83-5.314,13.973-8.656,22.973
						c-3.258,9-6.428,17.057-8.828,22.885c-1.201,2.83-2.229,5.143-3,6.771c-0.342,0.686-0.6,1.287-0.857,1.801
						c-0.172,0.428-0.344,0.6-0.344,0.6S93.514,367.765,93.602,367.337z"/>
				</g>
			</g>
		</g>
		<g>
			<g>
				<g>
					<path fill="#25325D" d="M27,346.595c0.514,0.17,1.201,0.342,1.971,0.514c1.717,0.516,4.201,1.201,7.287,2.145
						c6.17,1.885,14.484,4.627,23.742,7.713s17.57,5.914,23.656,7.887c3,0.943,5.4,1.713,7.201,2.314
						c0.771,0.256,1.457,0.514,1.971,0.686c0.43,0.172,0.686,0.258,0.686,0.258s-0.256-0.086-0.686-0.172
						c-0.514-0.172-1.201-0.344-1.971-0.516c-1.715-0.514-4.201-1.199-7.287-2.143c-6.17-1.887-14.484-4.629-23.742-7.715
						s-17.57-5.914-23.656-7.885c-3-0.943-5.4-1.715-7.201-2.314c-0.771-0.258-1.457-0.516-1.971-0.686
						c-0.43-0.172-0.686-0.258-0.686-0.258C26.315,346.337,26.571,346.423,27,346.595z"/>
				</g>
			</g>
		</g>
	</g>
	<g>
		<g>
			<g>
				<path fill="#FF5353" d="M40.629,34.08L21.772,91.595c-1.801,5.571,1.029,11.742,6.43,13.628l70.113,25.114
					c5.229,1.885,11.143-1.115,12.943-6.686l18.855-57.514c1.801-5.572-1.029-11.657-6.344-13.543l-6.77-2.4l2.914-8.829
					c5.313-16.286-3-34.114-18.6-39.686C85.713-3.892,68.657,4.851,63.342,21.137l-2.914,8.828l-6.771-2.4
					C48.342,25.679,42.514,28.594,40.629,34.08z M104.229,45.565L73.2,34.508l2.914-8.829c2.916-8.914,12.258-13.713,20.83-10.628
					c8.57,3.085,13.113,12.856,10.199,21.771L104.229,45.565z M63.77,73.08c2.314-7.114,9.688-10.885,16.543-8.485
					c6.857,2.4,10.457,10.2,8.145,17.314c-1.801,5.485-6.6,8.914-11.83,9.171l-4.799,14.657c-0.172,0.6-0.857,0.857-1.371,0.686
					l-6.771-2.4c-0.6-0.172-0.943-0.858-0.771-1.458l4.801-14.657C63.686,84.394,61.885,78.565,63.77,73.08z"/>
			</g>
		</g>
		<g>
			<path fill="#25325D" d="M89.143,39.823c15.686,5.657,28.285,10.372,28.199,10.543c0,0.171-12.771-4.286-28.371-9.943
				C73.286,34.766,60.686,30.051,60.772,29.88C60.772,29.622,73.543,34.079,89.143,39.823z"/>
		</g>
		<g>
			<g>
				<path fill="#25325D" d="M45.77,32.541c-0.084,0.257-0.17,0.6-0.344,1.028c-0.342,0.943-0.77,2.315-1.283,4.029
					c-1.115,3.514-2.744,8.572-4.803,14.743c-2.141,6.257-4.543,13.628-7.285,21.857c-1.369,4.114-2.828,8.485-4.285,12.943
					c-0.686,2.228-1.199,4.542-0.941,6.942c0.17,1.114,0.428,2.314,1.027,3.343s1.371,1.972,2.314,2.743
					c1.971,1.457,4.285,2.4,6.514,3.257c2.314,0.772,4.543,1.629,6.771,2.4c4.373,1.628,8.658,3.171,12.771,4.628
					c8.145,3,15.516,5.657,21.688,7.886c6.084,2.315,11.055,4.114,14.57,5.4c1.629,0.601,3,1.115,3.941,1.458
					c0.43,0.171,0.771,0.343,1.029,0.428c0.258,0.086,0.342,0.171,0.342,0.171s-0.084,0-0.342-0.085
					c-0.258-0.086-0.6-0.172-1.029-0.343c-1.027-0.343-2.313-0.772-4.027-1.372c-3.514-1.2-8.484-3-14.656-5.143
					c-6.172-2.229-13.543-4.8-21.688-7.714c-4.027-1.458-8.313-2.915-12.77-4.543c-2.229-0.772-4.457-1.543-6.771-2.4
					c-2.314-0.858-4.629-1.801-6.686-3.429c-1.029-0.772-1.885-1.801-2.486-2.915c-0.6-1.115-0.941-2.314-1.027-3.6
					c-0.258-2.486,0.256-4.971,0.941-7.2c1.371-4.543,2.914-8.829,4.285-12.943c2.744-8.229,5.229-15.6,7.373-21.857
					c2.143-6.172,3.857-11.143,5.057-14.657c0.6-1.629,1.027-3,1.371-3.943c0.086-0.429,0.258-0.772,0.344-1.029
					c0.086-0.257,0.172-0.343,0.172-0.343S45.858,32.365,45.77,32.541z"/>
			</g>
		</g>
		<g>
			<g>
				<path fill="#25325D" d="M83.315,13.681c0.344-0.171,0.857-0.428,1.457-0.771c1.287-0.601,3.258-1.201,5.83-1.372
					c2.57-0.086,5.656,0.256,8.74,1.542c3.086,1.371,6.172,3.686,8.314,6.943c2.229,3.257,3.172,7.028,3.172,10.371
					c-0.086,3.343-0.771,6.343-1.543,8.743s-1.543,4.285-2.057,5.571c-0.6,1.285-0.943,1.971-0.943,1.971s0.172-0.771,0.686-2.057
					c0.516-1.371,1.201-3.257,1.887-5.657s1.371-5.314,1.371-8.571c0-3.257-0.941-6.857-3.084-9.943
					c-2.145-3.086-5.059-5.4-8.059-6.686c-3-1.371-6-1.714-8.484-1.628c-2.486,0-4.457,0.599-5.744,1.114
					c-1.285,0.514-1.973,0.943-1.973,0.857C82.799,14.108,82.971,14.023,83.315,13.681z"/>
			</g>
		</g>
		<g>
			<g>
				<path fill="#25325D" d="M79.542,64.596c-0.857-0.172-1.971-0.343-3.342-0.429c-1.285,0-2.914,0.171-4.457,0.771
					c-3.258,1.114-6.172,4.457-7.629,8.914c-0.688,2.228-0.688,4.714,0,7.2c0.684,2.399,2.143,4.799,4.113,6.771l0.172,0.171
					l-0.086,0.171c-1.715,4.8-3.6,10.029-5.57,15.429l-0.172-0.429c0.941,0.343,1.971,0.686,3,1.029
					c2.229,0.771,4.371,1.543,6.514,2.229l-0.428,0.257c1.801-5.4,3.771-10.542,5.229-15.428l0.086-0.172h0.256
					c2.488-0.172,4.803-1.286,6.688-2.657c1.885-1.457,3.344-3.171,4.285-5.057c2.059-3.772,1.543-7.8,0.43-10.629
					c-1.201-2.829-2.914-4.714-4.201-5.743c-1.285-1.029-2.143-1.372-2.143-1.457c0,0,0.857,0.257,2.143,1.286
					c1.285,0.943,3.172,2.829,4.371,5.743c0.6,1.457,1.029,3.171,1.115,5.057c0.084,1.886-0.43,3.943-1.373,5.915
					c-0.941,1.971-2.398,3.857-4.371,5.314c-1.885,1.457-4.371,2.572-7.027,2.743l0.258-0.257c-1.459,4.886-3.43,10.029-5.23,15.514
					l-0.086,0.343l-0.342-0.086c-2.145-0.772-4.287-1.458-6.516-2.229c-1.027-0.343-2.057-0.686-3-1.029l-0.344-0.085l0.086-0.343
					c1.971-5.4,3.943-10.629,5.658-15.429l0.086,0.343c-2.057-2.057-3.516-4.543-4.287-7.114c-0.684-2.571-0.684-5.229,0.086-7.543
					c1.543-4.542,4.629-7.971,7.973-9.171c1.629-0.6,3.258-0.772,4.629-0.686s2.572,0.343,3.428,0.6
					c0.945,0.342,1.629,0.599,2.059,0.771s0.686,0.343,0.686,0.343C82.2,65.622,81.342,65.194,79.542,64.596z"/>
			</g>
		</g>
	</g>
	<g>
		<g>
			<g>
				<path fill="#25325D" d="M94.116,416.623L92.745,87.479c-0.086-15.771,12.686-28.629,28.457-28.714l131.313-0.6
					c15.771-0.086,28.629,12.686,28.715,28.456l1.373,329.144c0.086,15.771-12.688,28.629-28.457,28.715l-131.23,0.6
					C107.057,445.08,94.2,432.394,94.116,416.623z"/>
			</g>
			<g>
				<path fill="#FFFFFF" d="M101.401,90.224l1.371,321.258c0.086,11.057,9.086,20.057,20.143,19.973l130.971-0.602
					c11.059-0.086,20.059-9.086,19.973-20.143l-1.371-321.258c-0.086-11.057-9.086-20.057-20.145-19.971l-22.283,0.085h-8.914
					c-3.43,0-6.172,2.914-6.172,6.514v4.629c0,3.6-2.742,6.514-6.172,6.514l-49.629,0.257c-3.344,0-6.172-2.829-6.172-6.429v-4.628
					c0-3.6-2.742-6.429-6.172-6.429l-25.457,0.085C110.315,70.166,101.401,79.166,101.401,90.224z"/>
			</g>
			<g>
				<g>
					<g>
						<g>
							<path fill="#FF5353" d="M137.229,386.109l-0.086-25.457c0-1.371,0.771-2.484,1.801-2.484l97.457-0.43
								c0.941,0,1.799,1.027,1.799,2.4l0.086,25.457c0,1.371-0.771,2.484-1.799,2.484l-97.457,0.43
								C138,388.509,137.229,387.48,137.229,386.109z"/>
						</g>
					</g>
				</g>
			</g>
		</g>
		<g>
			<g>
				
					<rect x="217.125" y="164.463" transform="matrix(-1 0.0046 -0.0046 -1 468.7927 334.0166)" fill="#FF5353" width="33.772" height="6.171"/>
				
					<rect x="217.125" y="164.463" transform="matrix(-1 0.0046 -0.0046 -1 468.7927 334.0166)" opacity="0.1" enable-background="new    " width="33.772" height="6.171"/>
			</g>
			<g>
				<g>
					<path fill="#E1E1E1" d="M117.426,202.423c-0.43-0.171-1.285-0.686-1.371-1.8c0-2.142,0-5.142-0.086-9.085
						c-0.086-1.972-0.086-4.115-0.086-6.515c0-0.6,0-1.2,0-1.8s0-1.371,0.428-1.971c0.344-0.6,1.029-0.943,1.801-0.943
						c0.686,0,1.373,0,2.059,0c5.57-0.085,11.914-0.085,18.941-0.171c28.115-0.172,66.943-0.343,109.887-0.6
						c0.771,0,1.543,0.428,1.971,1.028c0.258,0.258,0.344,0.686,0.43,1.029c0,0.428,0,0.685,0,1.028c0,1.372,0,2.743,0,4.029
						c0,2.657,0,5.314,0,7.886c0,1.371,0,2.657,0,3.943v0.943c0,0.257,0,0.685-0.086,1.028c-0.258,0.685-0.771,1.371-1.457,1.628
						c-0.344,0.086-0.771,0.172-1.113,0.172h-0.943h-1.885c-1.201,0-2.486,0-3.771,0c-10.201,0-19.887,0.085-29.229,0.085
						c-18.602,0.086-35.4,0.086-49.457,0.171c-14.059,0.086-25.459,0.086-33.344,0.086c-3.943,0-7.029,0-9.086,0
						c-0.943,0-1.799,0-2.314,0c-0.514,0-0.77,0-0.77,0s0.256-0.086,0.688,0.258c0.514-0.085,1.285-0.085,2.314-0.085
						c2.143,0,5.143,0,9.086-0.086c7.885-0.086,19.285-0.172,33.342-0.257c14.143-0.086,30.857-0.257,49.457-0.343
						c9.344-0.085,19.115-0.085,29.229-0.171c1.201,0,2.486,0,3.771,0h1.887h0.941c0.258,0,0.514-0.085,0.771-0.171
						c0.514-0.257,0.857-0.686,1.029-1.2c0.17-0.515,0.084-1.286,0.084-1.886c0-1.372,0-2.657,0-3.943c0-2.572,0-5.229,0-7.886
						c0-1.372,0-2.657,0-4.029c0-0.685,0-1.285-0.342-1.714c-0.344-0.514-0.857-0.771-1.457-0.771
						c-42.945,0.171-81.859,0.343-109.973,0.428c-7.027,0-13.371,0-18.941,0c-0.688,0-1.371,0-2.059,0
						c-0.6,0-1.199,0.257-1.543,0.771s-0.344,1.114-0.344,1.714s0,1.2,0,1.8c0,2.401,0,4.543,0,6.515c0,3.942,0,7.028,0,9.085
						c0.086,1.029,0.857,1.629,1.287,1.8c0.514,0.171,0.771,0.171,0.771,0.171S117.686,202.594,117.426,202.423z"/>
				</g>
			</g>
			<g>
				
					<rect x="180.012" y="188.386" transform="matrix(-1 0.0046 -0.0046 -1 422.7026 381.6297)" fill="#FF5353" width="61.801" height="5.829"/>
				
					<rect x="180.012" y="188.386" transform="matrix(-1 0.0046 -0.0046 -1 422.7026 381.6297)" opacity="0.2" fill="#FFFFFF" enable-background="new    " width="61.801" height="5.829"/>
			</g>
			<g>
				
					<rect x="217.381" y="221.034" transform="matrix(-1 0.0046 -0.0046 -1 469.5641 447.1599)" fill="#FF5353" width="33.774" height="6.171"/>
				
					<rect x="217.381" y="221.034" transform="matrix(-1 0.0046 -0.0046 -1 469.5641 447.1599)" opacity="0.1" enable-background="new    " width="33.774" height="6.171"/>
			</g>
			<g>
				<g>
					<path fill="#E1E1E1" d="M117.858,258.909c-0.516-0.085-1.371-0.514-1.801-1.457c-0.258-0.428-0.258-1.113-0.258-1.714
						c0-0.599,0-1.286,0-2.058c-0.086-1.543-0.086-3.256-0.086-5.229c-0.086-1.971-0.086-4.113-0.086-6.514c0-0.6,0-1.2,0-1.801
						c0-0.6,0.086-1.285,0.43-1.885c0.344-0.601,0.941-1.029,1.629-1.287c0.686-0.256,1.371-0.17,2.057-0.17
						c5.572-0.086,11.914-0.086,18.943-0.172c28.027-0.171,66.771-0.343,109.541-0.6c1.543,0,2.916,1.199,3.088,2.742
						c0,1.457,0,2.658,0,4.029c0,2.656,0,5.314,0,7.885c0,1.285,0,2.572,0,3.857c0,0.686,0.086,1.286-0.088,2.057
						c-0.17,0.686-0.598,1.285-1.197,1.715c-0.516,0.428-1.373,0.514-1.973,0.514h-1.887c-1.285,0-2.484,0-3.77,0
						c-10.029,0-19.801,0.085-29.059,0.085c-18.6,0.086-35.229,0.086-49.285,0.171c-13.973,0.086-25.285,0.086-33.172,0.086
						c-3.855,0-6.941,0-9,0c-0.941,0-1.799,0-2.314,0c-0.512,0-0.771,0-0.771,0s0.258,0,0.857,0.172
						c0.514-0.086,1.287-0.086,2.314-0.086c2.059,0,5.059,0,9-0.086c7.801-0.085,19.199-0.171,33.172-0.257
						c14.057-0.086,30.771-0.257,49.285-0.343c9.258-0.085,18.943-0.085,29.059-0.172c1.199,0,2.484,0,3.77,0h1.887
						c0.6,0,1.113-0.086,1.629-0.428c0.428-0.344,0.77-0.857,0.941-1.371c0.172-0.515,0.086-1.114,0.086-1.801
						c0-1.285,0-2.57,0-3.856c0-2.657,0-5.229,0-7.886c0-1.287,0-2.657,0-3.943c-0.086-1.2-1.199-2.143-2.398-2.143
						c-42.773,0.172-81.516,0.344-109.543,0.428c-7.029,0-13.371,0-18.943,0c-0.686,0-1.371-0.084-1.971,0.087
						c-0.602,0.171-1.115,0.599-1.457,1.114c-0.258,0.514-0.344,1.113-0.344,1.713c0,0.601,0,1.201,0,1.801c0,2.4,0,4.543,0,6.514
						c0,1.973,0,3.688,0,5.229c0,0.687,0,1.457,0,2.058s0,1.2,0.258,1.629c0.342,0.943,1.113,1.286,1.629,1.457
						c0.514,0.171,0.77,0.171,0.77,0.171S118.543,259.251,117.858,258.909z"/>
				</g>
			</g>
			<g>
				
					<rect x="217.549" y="280.078" transform="matrix(-1 0.0046 -0.0046 -1 470.1796 565.2395)" fill="#FF5353" width="33.774" height="6.172"/>
				
					<rect x="217.549" y="280.078" transform="matrix(-1 0.0046 -0.0046 -1 470.1796 565.2395)" opacity="0.1" enable-background="new    " width="33.774" height="6.172"/>
			</g>
			<g>
				<g>
					<path fill="#E1E1E1" d="M118.114,317.968c-0.514-0.086-1.371-0.514-1.801-1.457c-0.256-0.43-0.256-1.115-0.256-1.715
						c0-0.602,0-1.287,0-2.059c-0.088-1.543-0.088-3.256-0.088-5.229c-0.086-1.971-0.086-4.115-0.086-6.514c0-0.602,0-1.199,0-1.801
						c0-0.6,0.086-1.285,0.43-1.887c0.344-0.598,0.943-1.027,1.629-1.285s1.371-0.172,2.057-0.172
						c5.572-0.086,11.916-0.086,18.943-0.17c28.027-0.172,66.771-0.344,109.543-0.602c1.543,0,2.914,1.199,3.086,2.744
						c0,1.455,0,2.656,0,4.027c0,2.656,0,5.314,0,7.885c0,1.287,0,2.572,0,3.857c0,0.686,0.086,1.287-0.086,2.057
						c-0.172,0.688-0.6,1.287-1.199,1.717c-0.516,0.428-1.287,0.514-1.973,0.514h-1.887c-1.283,0-2.484,0-3.77,0
						c-10.029,0-19.801,0.086-29.059,0.086c-18.6,0.086-35.227,0.086-49.285,0.172c-13.973,0.086-25.285,0.086-33.172,0.086
						c-3.855,0-6.941,0-9,0c-0.941,0-1.799,0-2.313,0s-0.771,0-0.771,0s0.258-0.086,0.857,0.17c0.514-0.086,1.285-0.086,2.314-0.086
						c2.057,0,5.057,0,9-0.086c7.801-0.086,19.199-0.172,33.172-0.258c14.057-0.086,30.77-0.256,49.285-0.342
						c9.258-0.086,18.943-0.086,29.057-0.172c1.201,0,2.486,0,3.771,0h1.887c0.6,0,1.113-0.086,1.629-0.43
						c0.428-0.342,0.77-0.855,0.941-1.371c0.172-0.514,0.086-1.113,0.086-1.801c0-1.285,0-2.57,0-3.855c0-2.658,0-5.23,0-7.887
						c0-1.285,0-2.656,0-3.941c-0.086-1.201-1.199-2.145-2.4-2.145c-42.771,0.172-81.514,0.344-109.543,0.43
						c-7.027,0-13.371,0-18.941,0c-0.686,0-1.371-0.086-1.973,0.086c-0.6,0.172-1.113,0.6-1.457,1.113
						c-0.256,0.516-0.342,1.113-0.342,1.715c0,0.6,0,1.199,0,1.801c0,2.4,0,4.543,0,6.514s0,3.688,0,5.23c0,0.686,0,1.457,0,2.057
						s0,1.199,0.256,1.629c0.344,0.941,1.115,1.285,1.629,1.457s0.771,0.172,0.771,0.172S118.799,318.224,118.114,317.968z"/>
				</g>
			</g>
			<g>
				
					<rect x="180.27" y="244.958" transform="matrix(-1 0.0046 -0.0046 -1 423.4822 494.7681)" fill="#FF5353" width="61.801" height="5.829"/>
				
					<rect x="180.27" y="244.958" transform="matrix(-1 0.0046 -0.0046 -1 423.4822 494.7681)" opacity="0.2" fill="#FFFFFF" enable-background="new    " width="61.801" height="5.829"/>
			</g>
			<g>
				<g>
					<g>
						<path fill="#FF5353" d="M239.057,304.509c1.543-0.086,2.742,1.199,2.742,2.828s-1.199,2.914-2.656,2.914
							c-1.543,0.086-2.742-1.199-2.742-2.828C236.401,305.88,237.6,304.595,239.057,304.509z"/>
					</g>
					<g>
						<path fill="#FF5353" d="M230.657,304.595c1.543-0.086,2.744,1.199,2.744,2.828s-1.115,2.828-2.658,2.914
							S228,309.138,228,307.509S229.2,304.595,230.657,304.595z"/>
					</g>
					<g>
						<path fill="#FF5353" d="M222.342,304.595c1.543-0.086,2.742,1.199,2.742,2.828s-1.199,2.914-2.656,2.914
							c-1.543,0.086-2.742-1.199-2.742-2.828C219.686,305.966,220.885,304.681,222.342,304.595z"/>
					</g>
					<g>
						<path fill="#FF5353" d="M213.944,304.681c1.543-0.086,2.742,1.199,2.742,2.828s-1.199,2.914-2.656,2.914
							c-1.543,0.086-2.744-1.199-2.744-2.828S212.487,304.681,213.944,304.681z"/>
					</g>
					<g>
						<path fill="#FF5353" d="M205.543,304.681c1.543-0.086,2.742,1.199,2.742,2.828s-1.199,2.914-2.656,2.914
							c-1.543,0.086-2.744-1.199-2.744-2.828C202.885,306.052,204.086,304.765,205.543,304.681z"/>
					</g>
					<g>
						<path fill="#FF5353" d="M197.143,304.765c1.543-0.084,2.742,1.201,2.742,2.83s-1.199,2.914-2.656,2.914
							c-1.543,0.086-2.742-1.201-2.742-2.828C194.487,306.052,195.686,304.765,197.143,304.765z"/>
					</g>
					<g>
						<path fill="#FF5353" d="M188.829,304.765c1.543-0.084,2.742,1.201,2.742,2.83s-1.199,2.914-2.656,2.914
							c-1.543,0.086-2.742-1.201-2.742-2.828C186.172,306.138,187.372,304.765,188.829,304.765z"/>
					</g>
					<g>
						<path fill="#FF5353" d="M180.428,304.851c1.543-0.086,2.742,1.201,2.742,2.83c0,1.627-1.199,2.914-2.656,2.914
							c-1.543,0.086-2.742-1.201-2.742-2.83C177.772,306.138,178.971,304.851,180.428,304.851z"/>
					</g>
					<g>
						<path fill="#FF5353" d="M172.03,304.851c1.541-0.086,2.742,1.201,2.742,2.83c0,1.627-1.201,2.914-2.658,2.914
							c-1.543,0.086-2.742-1.201-2.742-2.83C169.372,306.224,170.571,304.851,172.03,304.851z"/>
					</g>
				</g>
				<g opacity="0.2">
					<g>
						<path fill="#FFFFFF" d="M239.057,304.509c1.543-0.086,2.742,1.199,2.742,2.828s-1.199,2.914-2.656,2.914
							c-1.543,0.086-2.742-1.199-2.742-2.828C236.401,305.88,237.6,304.595,239.057,304.509z"/>
					</g>
					<g>
						<path fill="#FFFFFF" d="M230.657,304.595c1.543-0.086,2.744,1.199,2.744,2.828s-1.115,2.828-2.658,2.914
							S228,309.138,228,307.509S229.2,304.595,230.657,304.595z"/>
					</g>
					<g>
						<path fill="#FFFFFF" d="M222.342,304.595c1.543-0.086,2.742,1.199,2.742,2.828s-1.199,2.914-2.656,2.914
							c-1.543,0.086-2.742-1.199-2.742-2.828C219.686,305.966,220.885,304.681,222.342,304.595z"/>
					</g>
					<g>
						<path fill="#FFFFFF" d="M213.944,304.681c1.543-0.086,2.742,1.199,2.742,2.828s-1.199,2.914-2.656,2.914
							c-1.543,0.086-2.744-1.199-2.744-2.828S212.487,304.681,213.944,304.681z"/>
					</g>
					<g>
						<path fill="#FFFFFF" d="M205.543,304.681c1.543-0.086,2.742,1.199,2.742,2.828s-1.199,2.914-2.656,2.914
							c-1.543,0.086-2.744-1.199-2.744-2.828C202.885,306.052,204.086,304.765,205.543,304.681z"/>
					</g>
					<g>
						<path fill="#FFFFFF" d="M197.143,304.765c1.543-0.084,2.742,1.201,2.742,2.83s-1.199,2.914-2.656,2.914
							c-1.543,0.086-2.742-1.201-2.742-2.828C194.487,306.052,195.686,304.765,197.143,304.765z"/>
					</g>
					<g>
						<path fill="#FFFFFF" d="M188.829,304.765c1.543-0.084,2.742,1.201,2.742,2.83s-1.199,2.914-2.656,2.914
							c-1.543,0.086-2.742-1.201-2.742-2.828C186.172,306.138,187.372,304.765,188.829,304.765z"/>
					</g>
					<g>
						<path fill="#FFFFFF" d="M180.428,304.851c1.543-0.086,2.742,1.201,2.742,2.83c0,1.627-1.199,2.914-2.656,2.914
							c-1.543,0.086-2.742-1.201-2.742-2.83C177.772,306.138,178.971,304.851,180.428,304.851z"/>
					</g>
					<g>
						<path fill="#FFFFFF" d="M172.03,304.851c1.541-0.086,2.742,1.201,2.742,2.83c0,1.627-1.201,2.914-2.658,2.914
							c-1.543,0.086-2.742-1.201-2.742-2.83C169.372,306.224,170.571,304.851,172.03,304.851z"/>
					</g>
				</g>
			</g>
			<g>
				<g>
					<path fill="#FF5353" d="M174.428,127.166l17.4-0.086c0,0,0.344-7.971-7.029-9.085c1.803-0.772,3.086-2.657,3.086-4.8
						c0-2.828-2.143-5.057-4.799-5.057c-2.658,0-4.801,2.314-4.801,5.143c0,2.143,1.201,3.943,3,4.714
						C174,119.108,174.428,127.251,174.428,127.166z"/>
					<path opacity="0.1" enable-background="new    " d="M174.428,127.166l17.4-0.086c0,0,0.344-7.971-7.029-9.085
						c1.803-0.772,3.086-2.657,3.086-4.8c0-2.828-2.143-5.057-4.799-5.057c-2.658,0-4.801,2.314-4.801,5.143
						c0,2.143,1.201,3.943,3,4.714C174,119.108,174.428,127.251,174.428,127.166z"/>
				</g>
				<g>
					
						<rect x="153.012" y="132.327" transform="matrix(-1 0.0046 -0.0046 -1 368.7053 271.2623)" fill="#FF5353" width="62.057" height="7.457"/>
					
						<rect x="153.012" y="132.327" transform="matrix(-1 0.0046 -0.0046 -1 368.7053 271.2623)" opacity="0.2" fill="#FFFFFF" enable-background="new    " width="62.057" height="7.457"/>
				</g>
			</g>
		</g>
	</g>
	<g>
		<g>
			<g>
				<path fill="#FF5353" d="M381.686,170.879c0.428,0,1.029,0.086,1.801,0.086c0.77,0,1.799,0.172,2.914,0.343
					c0.514,0.086,1.113,0.172,1.799,0.343c0.6,0.171,1.371,0.343,2.059,0.514c2.914,0.857,6.342,2.228,9.855,4.714
					c3.514,2.485,7.029,6.086,9.771,10.714c1.457,2.314,2.486,4.885,3.43,7.714c0.771,2.829,1.457,5.829,1.543,9
					c0.172,1.543,0,3.172-0.086,4.8c-0.086,0.858-0.258,1.629-0.344,2.486s-0.172,1.629-0.43,2.486
					c-0.6,3.257-1.971,6.515-3.686,9.686c-3.43,6.258-9.172,11.658-16.285,14.83c-3.6,1.543-7.543,2.399-11.57,2.57
					c-4.029,0.258-8.145-0.342-12.086-1.714l-1.201-0.428h0.258c-5.656,2.827-11.143,5.657-16.543,8.399l-0.771,0.344l0.258-0.771
					c1.801-5.486,3.514-10.8,5.143-15.943l0.088,0.343c-4.287-4.286-7.201-9.429-8.83-14.743
					c-1.627-5.314-1.887-10.714-1.199-15.686c0.6-4.886,2.313-9.429,4.457-13.2c2.143-3.771,4.887-6.857,7.629-9.257
					c2.828-2.314,5.742-3.943,8.313-5.143c2.658-1.029,4.973-1.714,6.943-2.057c0.943-0.172,1.801-0.344,2.572-0.429
					c0.686,0,1.371-0.086,1.885-0.086s0.943,0,1.199,0c0.258,0,0.43,0,0.43,0c0,0.086-0.086,0.086-0.43,0.086
					c-0.342,0-0.686,0.085-1.199,0.085c-0.514,0.086-1.115,0.086-1.885,0.171c-0.771,0.086-1.629,0.258-2.572,0.429
					c-1.885,0.343-4.285,1.029-6.857,2.143c-2.57,1.2-5.4,2.743-8.143,5.143c-2.656,2.4-5.313,5.4-7.457,9.171
					c-2.143,3.686-3.77,8.143-4.371,13.029c-0.6,4.886-0.344,10.2,1.285,15.429c1.629,5.228,4.543,10.285,8.742,14.485l0.172,0.171
					l-0.082,0.173c-1.629,5.143-3.344,10.458-5.145,15.944l-0.514-0.43c5.314-2.742,10.885-5.57,16.543-8.4l0.172-0.086l0.17,0.086
					l1.115,0.428c3.771,1.371,7.799,1.972,11.742,1.715c3.943-0.172,7.799-1.028,11.314-2.571c7.027-3.086,12.686-8.4,16.027-14.571
					c1.715-3.086,3-6.258,3.688-9.515c0.172-0.771,0.342-1.628,0.428-2.4s0.344-1.629,0.344-2.4c0.086-1.629,0.256-3.258,0.086-4.8
					c-0.086-3.172-0.686-6.086-1.457-8.915c-0.943-2.742-1.973-5.399-3.344-7.628c-2.658-4.628-6.086-8.143-9.514-10.628
					c-3.43-2.486-6.859-3.943-9.688-4.8c-0.771-0.257-1.457-0.429-2.057-0.6c-0.602-0.172-1.199-0.257-1.801-0.343
					c-1.199-0.172-2.143-0.343-2.914-0.343c-0.771-0.086-1.371-0.171-1.799-0.171c-0.43-0.086-0.602-0.086-0.602-0.086
					S381.258,170.794,381.686,170.879z"/>
			</g>
		</g>
		<g>
			<g>
				<path fill="#FF5353" d="M373.542,201.48v15.085h4.201c0,0,10.199,1.628,12.172,1.628c0.256,0,0.598,0,0.855-0.085
					c1.973-0.514,3.258-2.571,3.258-4.714c-0.084-4.286-0.256-12.172-0.771-12.686c-0.686-0.686-8.656-0.686-8.656-0.686
					s-0.43,1.629,0-4.714c0.428-6.343-3.344-6.086-3.344-6.086v4.886l-5.313,7.372h-2.4H373.542z"/>
			</g>
			<g>
				<polygon fill="#FF5353" points="372.258,200.537 372.258,216.822 368.057,216.822 366.6,200.194 				"/>
			</g>
		</g>
	</g>
	<ellipse opacity="0.6" fill="#F0F0F0" enable-background="new    " cx="310.723" cy="508.08" rx="65.445" ry="16.746"/>
	<g>
		<circle fill="#AAD8FD" cx="343.715" cy="250.794" r="2.656"/>
		<path fill="#D0EAFD" d="M300.43,383.652c-0.086-0.344-0.514-0.514-0.857-0.428c-0.342,0.084-0.514,0.512-0.428,0.855l2.484,7.715
			l-10.027,1.715c-0.43,0.084-0.686,0.428-0.602,0.77c0.086,0.43,0.428,0.688,0.771,0.602l11.57-1.971L300.43,383.652z"/>
		<path fill="#FC5454" d="M313.286,311.566c0,0,1.801,6.514,6.172,7.627c3.943-1.885,48.342-31.627,47.828-41.484
			c-0.6-9.771-13.971-41.229-21.256-51.429c-7.201-10.2-15.43-7.714-19.887-4.457s-4.113,8.486-1.285,14.743
			c2.828,6.257,20.742,32.315,20.742,32.315C342,275.224,313.286,311.566,313.286,311.566z"/>
		<path fill="#FFAE82" d="M319.458,481.195c0.084,1.285-4.715,10.371-7.029,12.943c-2.314,2.484-11.742,8.484-11.742,8.484
			s9.686,4.799,18.344,7.027c8.658,2.23,10.885,1.717,13.971,0c3.086-1.713,2.914-4.113,0-11.914
			c-3-7.799-2.057-12.941-2.057-12.941S319.286,479.91,319.458,481.195z"/>
		<path fill="#2D355C" d="M300.686,502.539c0,0,9.684,4.799,18.342,7.027c8.658,2.23,10.887,1.715,13.971,0
			c3.086-1.715,2.916-4.113,0-11.914c-0.428-1.199-0.855-2.4-1.113-3.514c-2.057-0.602-4.457-0.258-6,1.027
			c-2.229,2.744-3.6,6.344-7.199,7.201c-4.457,0.686-7.801-1.887-11.314-4.201C304.114,500.48,300.686,502.539,300.686,502.539z"/>
		<path fill="#FDAC80" d="M301.799,484.281c0,0,3.43,13.543-4.285,15.855c-7.715,2.316-20.484-0.943-17.742,6.344
			c2.742,7.285,13.285,8.229,21.258,7.973c7.969-0.172,11.398,3.941,17.484,2.229c6.086-1.801,7.029-5.572,3.686-14.229
			c-3.428-8.658-2.656-19.201-2.656-19.201L301.799,484.281z"/>
		<path fill="#2D355C" stroke="#2D355C" stroke-width="0.216" stroke-miterlimit="2.6131" d="M275.229,505.88
			c2.742,7.285,17.83,8.828,25.801,8.572c7.971-0.172,11.398,3.941,17.484,2.229c6.088-1.801,7.029-5.572,3.688-14.229
			c-0.428-1.029-0.771-2.145-1.029-3.174c-1.799-0.342-3.686-0.342-5.229,0.43c-7.629,2.658-15.686,11.229-22.457,6.258
			c-1.799-1.285,4.457-3.686,3.771-6C289.543,502.109,272.571,498.595,275.229,505.88z"/>
		<path fill="#2D355C" d="M275.229,505.794c2.742,7.285,17.83,8.828,25.801,8.572c7.971-0.172,11.398,3.941,17.484,2.229
			c3.516-1.029,5.314-2.744,5.572-5.658c-0.857,1.201-2.398,2.059-4.457,2.658c-6.172,1.799-9.514-2.402-17.484-2.143
			c-7.973,0.256-23.059-1.287-25.803-8.572c-0.084-0.172-0.084-0.344-0.17-0.514C275.057,503.052,274.629,504.166,275.229,505.794z"
			/>
		<path fill="#2D355C" d="M311.227,414.937c4.973,20.914,6.258,68.57,6.258,68.57s3.941,3.086,9.172,3.258
			c1.715,0.086,3.6-0.258,5.57-1.115c-0.17-6.256,5.572-33.855,6.688-45.514c1.115-11.656-3.086-26.914-5.4-36.857
			c-2.314-10.027,3.086-36.684,5.229-46.027c2.143-9.258,5.744-21.771,1.287-33.516c-4.459-11.742-13.115-26.742-13.115-26.742
			l-19.285,3.602c0,0,7.885,14.828,9.857,20.742c1.371,3.855,1.627,11.572-1.973,18c-1.887,3.258-4.629,6.172-8.828,8.143
			C301.458,355.023,306.342,393.937,311.227,414.937z"/>
		<path fill="#3D446B" d="M311.401,414.937c4.971,20.914,6.256,68.572,6.256,68.572s2.658,2.143,6.602,2.914
			c0.771-17.143,2.828-44.057-1.801-60.857c-5.229-19.801-11.057-63.686-5.057-69.258c16.885-20.057,4.543-36.17,1.285-45.084
			c-0.688,9.256,4.971,24.256-3.172,28.113c-1.887,3.258-4.629,6.172-8.828,8.143C301.458,355.023,306.342,393.937,311.401,414.937z
			"/>
		<path fill="#2D355C" d="M311.315,297.593c18.086,27.859,11.57,41.486,8.4,47.145c-3.172,5.656-11.916,7.369-11.059,10.885
			s2.658,32.83,4.373,42.344c1.713,9.514-0.943,13.457,3.342,28.629c4.285,15.17,3.688,34.543,4.801,57
			c-3.086,4.799-16.713,5.484-21.857,0c1.201-2.83,0.086-13.115-2.057-24.086c-2.229-10.973-4.629-35.486-6.344-43.973
			c-1.799-8.484-17.313-47.313-19.029-70.457c-1.713-23.143,3.943-44.742,3.943-44.742S291.858,297.08,311.315,297.593z"/>
		<path fill="#2D355C" d="M271.885,345.08c1.801,23.057,17.314,61.971,19.029,70.457c1.713,8.486,4.199,33,6.342,43.971
			c2.145,10.973,3.258,21.258,2.059,24.086c0.77,0.859,1.799,1.543,2.914,2.057c0.686-4.971,0.342-16.713-1.543-26.229
			c-2.229-10.969-2.914-34.371-4.629-42.855c-1.715-8.486-14.143-46.715-15.857-69.857c-1.713-23.143,3.943-44.742,3.943-44.742
			s12.172-2.486,28.113-2.658c-0.342-0.514-0.686-1.027-1.027-1.627c-19.371-0.602-35.4,2.656-35.4,2.656
			S270.172,321.937,271.885,345.08z"/>
		<path fill="#FDAC80" d="M313.799,192.508c1.371,5.572,3.258,25.886,3.258,25.886l-16.027,0.686c0,0,0.084-11.314-1.029-12.257
			c-1.201-0.943-6.943,1.2-8.143,0c-1.201-1.2-3.344-5.571-5.572-11.571c-2.143-6-0.514-25.458-0.514-25.458
			C287.401,169.365,312.342,186.937,313.799,192.508z"/>
		<path fill="#FC5454" d="M323.745,274.365c-4.887,10.973-1.285,14.742,5.57,24.686c-12.258,5.402-38.914,8.658-56.143,3.6
			c2.143-4.027,3.6-27.598-0.516-35.656c-4.113-8.057-2.484-16.886,0-20.829c2.4-3.943,18.344-24.6,28.457-29.486
			c10.201-4.885,22.629,1.286,22.629,1.286C334.543,232.194,328.629,263.308,323.745,274.365z"/>
		<path fill="#FC5454" d="M280.885,304.107c0.344,0.086,0.686,0.172,1.029,0.26c16.457,2.143,37.029-0.857,47.314-5.4
			c-6.857-9.943-10.457-13.715-5.572-24.687c4.887-10.972,10.801-42.085,0-56.314c0,0-1.627-0.857-4.113-1.628
			c-3.43-0.257-7.201,0.086-10.715,1.8c-10.113,4.971-25.971,25.542-28.457,29.485s-4.113,12.771,0,20.83
			C284.487,276.509,283.03,299.996,280.885,304.107z"/>
		<path fill="#FC69A4" d="M304.542,240.938c-0.342,0.257-0.598,0.514-0.941,0.771C303.944,241.451,304.286,241.194,304.542,240.938z
			"/>
		<path fill="#2D355C" d="M288.856,188.222c-1.801-2.657-4.371-7.199-3.258-14.571c0.859,6.257,3.172,14.742,8.059,19.971
			c4.113,4.457,6.086,17.057,4.029,23.143c-0.602,0.857-1.115,1.715-1.459,2.486c0.258-0.086,0.43-0.171,0.602-0.257
			c4.027-1.457,8.484-1.2,10.629,6.086c2.229,7.542,5.742,32.742-5.314,58.972c10.543,8.055,17.914,6,27.6,1.199
			c38.143-32.573,9.086-77.658,7.029-83.915c-3.943-12.943-2.658-24.343-5.314-34.2c-2.572-9.857-11.658-20.743-23.313-16.8
			c0,0-13.717,2.829-21.174,10.286C279.514,168.079,282,182.822,288.856,188.222z"/>
		<path fill="#2D355C" d="M315.772,284.308c-0.773,0.602-4.629,2.742-7.887,3.342c7.715,3.602,14.057,1.457,21.857-2.398
			c38.141-32.573,9.086-77.658,7.027-83.915c-3.941-12.943-2.656-24.343-5.313-34.2c-2.572-9.857-11.658-20.743-23.314-16.8
			c0,0-8.828,1.801-16.113,6.343c9.77-0.6,19.371,3.343,22.713,12.086c11.229,28.372,23.229,59.4,18.943,89.486
			C331.971,268.537,324.514,278.224,315.772,284.308z"/>
		<path fill="#FFAE82" d="M217.713,210.849c-3.855-3.685-3-7.286-6.086-10.628c-3.086-3.342-19.457-11.143-21.17-10.028
			c-1.715,1.2,1.371,3.343,4.285,4.714s6.172,3.429,6.428,4.2c0.258,0.771-1.115,1.2-1.885,1.628
			c-0.857,0.429-1.115,1.287,0.256,2.829c0.342,0.514-1.799,1.2-0.514,3.086c0.258,0.6-1.285,1.543-0.086,3.085
			c1.201,1.543,3.172,3.515,7.801,2.915c1.715,0.429,4.457,3.772,8.057,8.229l10.887-4.628
			C222.172,214.28,219.086,212.308,217.713,210.849z"/>
		<path fill="#FC5454" d="M217.799,209.822c0,0-6.428,1.886-7.541,6.257c1.971,3.942,32.143,48.086,42,47.401
			c9.857-0.686,41.143-14.401,51.256-21.772c10.201-7.372,7.543-15.514,4.285-19.972c-3.256-4.371-8.57-4.028-14.742-1.114
			C286.885,223.537,261,241.708,261,241.708C254.657,238.108,217.799,209.822,217.799,209.822z"/>
	</g>
</g>
</svg>
